<svg width="28" height="28" viewBox="0 0 28 28" fill="none" xmlns="http://www.w3.org/2000/svg">
<rect width="28" height="28" rx="14" fill="white"/>
<path d="M14 4.83325L21.5 8.16658V13.1666C21.5 17.7916 18.3 22.1166 14 23.1666C9.7 22.1166 6.5 17.7916 6.5 13.1666V8.16658L14 4.83325ZM14 6.64992L8.16667 9.24992V13.3499C8.16667 16.9499 10.875 20.6666 14 21.4999C17.125 20.6666 19.8333 16.9499 19.8333 13.3499V9.24992L14 6.64992ZM17.3333 15.6666V16.9916C17.3 17.1749 17.15 17.2999 16.9417 17.3333H11.0583C10.85 17.2999 10.7 17.1749 10.6667 16.9916V15.6666H17.3333ZM18.1667 10.6666L17.3333 14.8333H10.6667L9.83333 10.6666L12.0583 12.8916L14 10.9499L15.9417 12.8916L18.1667 10.6666Z" fill="#00C04B"/>
</svg>
