<svg width="27" height="27" viewBox="0 0 27 27" fill="none" xmlns="http://www.w3.org/2000/svg">
<path d="M20.3487 11.7028C19.9697 12.0841 19.6795 12.5443 19.4987 13.0505C19.3179 13.5568 19.251 14.0967 19.3027 14.6318L19.2847 14.6138C19.3379 15.2437 19.2529 15.8775 19.0358 16.4712C18.8187 17.0648 18.4747 17.6039 18.0278 18.0509C17.5808 18.4978 17.0417 18.8419 16.448 19.0589C15.8544 19.276 15.2205 19.361 14.5907 19.3078L14.6087 19.3258C13.8553 19.2557 13.0986 19.4196 12.4417 19.7953C11.7849 20.171 11.2599 20.7401 10.9384 21.4251C10.6169 22.1101 10.5144 22.8775 10.645 23.6229C10.7757 24.3682 11.133 25.0551 11.6683 25.5899C12.2036 26.1247 12.8908 26.4814 13.6362 26.6113C14.3817 26.7413 15.149 26.6381 15.8337 26.316C16.5184 25.9938 17.087 25.4684 17.4621 24.8112C17.8372 24.154 18.0005 23.3972 17.9297 22.6438L17.9487 22.6618C17.8955 22.032 17.9804 21.3981 18.1975 20.8044C18.4146 20.2108 18.7587 19.6717 19.2056 19.2247C19.6526 18.7778 20.1917 18.4337 20.7853 18.2167C21.379 17.9996 22.0128 17.9146 22.6427 17.9678L22.6237 17.9498C23.2391 18.0051 23.8586 17.9042 24.4247 17.6564C24.9907 17.4086 25.4851 17.0219 25.8619 16.5322C26.2387 16.0425 26.4859 15.4655 26.5803 14.8549C26.6748 14.2442 26.6136 13.6196 26.4024 13.0388C26.1912 12.4581 25.8368 11.9401 25.3721 11.5328C24.9074 11.1255 24.3474 10.8421 23.744 10.7089C23.1406 10.5757 22.5133 10.5969 21.9203 10.7706C21.3273 10.9444 20.7878 11.265 20.3517 11.7028H20.3487Z" fill="#64748B"/>
<path d="M12.9709 16.9683L12.9519 16.9503C13.4872 17.0042 14.0278 16.9385 14.5347 16.7579C15.0415 16.5773 15.5019 16.2864 15.8825 15.9061C16.263 15.5258 16.5544 15.0656 16.7353 14.5589C16.9163 14.0522 16.9824 13.5117 16.9289 12.9763L16.9479 12.9943C16.8947 12.3644 16.9797 11.7306 17.1967 11.1369C17.4138 10.5433 17.7579 10.0042 18.2048 9.55717C18.6518 9.11027 19.1909 8.76617 19.7845 8.54917C20.3782 8.33203 21.012 8.2471 21.6419 8.30027L21.6229 8.28227C22.3764 8.35307 23.1333 8.18963 23.7905 7.81437C24.4478 7.43911 24.9732 6.87024 25.2952 6.18537C25.6172 5.50051 25.7201 4.73298 25.5899 3.98747C25.4597 3.24196 25.1027 2.55478 24.5675 2.01964C24.0324 1.48451 23.3452 1.12747 22.5997 0.997251C21.8542 0.867021 21.0867 0.969932 20.4018 1.29195C19.7169 1.61396 19.1481 2.13941 18.7728 2.79662C18.3975 3.45382 18.2341 4.21079 18.3049 4.96427L18.2869 4.94527C18.3402 5.57516 18.2554 6.2091 18.0384 6.80282C17.8214 7.39654 17.4773 7.93573 17.0304 8.38277C16.5834 8.82967 16.0442 9.17377 15.4505 9.39077C14.8567 9.60777 14.2228 9.69257 13.5929 9.63927L13.6109 9.65827C13.0756 9.60437 12.5349 9.67007 12.0281 9.85067C11.5213 10.0312 11.0609 10.3222 10.6803 10.7025C10.2997 11.0828 10.0084 11.543 9.82737 12.0497C9.64647 12.5564 9.58037 13.0969 9.63387 13.6323L9.61587 13.6143C9.66887 14.2441 9.58377 14.8779 9.36667 15.4715C9.14947 16.065 8.80547 16.6041 8.35857 17.051C7.91163 17.4979 7.37259 17.8419 6.77903 18.0591C6.18547 18.2762 5.55168 18.3613 4.92187 18.3083L4.93987 18.3263C4.18639 18.2555 3.42942 18.4189 2.77221 18.7942C2.11501 19.1695 1.58956 19.7383 1.26755 20.4232C0.945525 21.1081 0.842605 21.8756 0.972835 22.6211C1.10307 23.3666 1.46011 24.0538 1.99524 24.5889C2.53038 25.1241 3.21756 25.4811 3.96307 25.6113C4.70858 25.7415 5.47611 25.6386 6.16098 25.3166C6.84584 24.9946 7.41471 24.4692 7.78997 23.812C8.16527 23.1547 8.32867 22.3978 8.25787 21.6443L8.27687 21.6623C8.22367 21.0324 8.30867 20.3986 8.52577 19.8049C8.74277 19.2113 9.08687 18.6722 9.53377 18.2252C9.98077 17.7783 10.5199 17.4342 11.1135 17.2172C11.7072 17.0001 12.341 16.9151 12.9709 16.9683Z" fill="#475569"/>
<path d="M6.2699 14.961C6.64892 14.5798 6.9391 14.1196 7.11974 13.6133C7.30038 13.107 7.36702 12.567 7.3149 12.032L7.33389 12.05C7.28069 11.42 7.36565 10.7859 7.58286 10.1921C7.80007 9.59827 8.1443 9.05907 8.5915 8.61207C9.0387 8.16509 9.578 7.8211 10.1719 7.60415C10.7658 7.38719 11.3999 7.30249 12.0299 7.35597L12.0109 7.33797C12.7641 7.40854 13.5208 7.24505 14.1777 6.86981C14.8346 6.49458 15.3597 5.92585 15.6816 5.2412C16.0034 4.55654 16.1062 3.78929 15.976 3.04406C15.8458 2.29883 15.4888 1.61191 14.9539 1.07697C14.419 0.54203 13.732 0.18511 12.9868 0.0548905C12.2416 -0.0753395 11.4743 0.0274805 10.7897 0.3493C10.105 0.67112 9.5363 1.19629 9.1611 1.85319C8.7858 2.51009 8.6223 3.26675 8.6929 4.01997L8.6749 4.00197C8.7281 4.63182 8.6431 5.26569 8.426 5.85933C8.2089 6.45297 7.86492 6.99208 7.41796 7.43904C6.97101 7.886 6.43189 8.23003 5.83825 8.44707C5.24461 8.66417 4.61075 8.74917 3.9809 8.69597L3.9989 8.71397C3.38347 8.65877 2.76406 8.75987 2.19808 9.00777C1.6321 9.25567 1.13785 9.64247 0.761139 10.1323C0.384429 10.622 0.137449 11.199 0.0430689 11.8096C-0.0513011 12.4203 0.0099889 13.0449 0.221259 13.6255C0.432529 14.2062 0.786959 14.7241 1.25169 15.1313C1.71642 15.5386 2.27642 15.8219 2.8798 15.9551C3.48317 16.0882 4.1104 16.0669 4.70337 15.8932C5.29633 15.7194 5.83583 15.3988 6.27189 14.961H6.2699Z" fill="#64748B"/>
</svg>
