<svg width="163" height="27" viewBox="0 0 163 27" fill="none" xmlns="http://www.w3.org/2000/svg">
<path d="M20.3487 11.7028C19.9697 12.0841 19.6795 12.5443 19.4987 13.0505C19.3179 13.5568 19.251 14.0967 19.3027 14.6318L19.2847 14.6138C19.3379 15.2437 19.2529 15.8775 19.0358 16.4712C18.8187 17.0648 18.4747 17.6039 18.0278 18.0509C17.5808 18.4978 17.0417 18.8419 16.448 19.0589C15.8544 19.276 15.2205 19.361 14.5907 19.3078L14.6087 19.3258C13.8553 19.2557 13.0986 19.4196 12.4417 19.7953C11.7849 20.171 11.2599 20.7401 10.9384 21.4251C10.6169 22.1101 10.5144 22.8775 10.645 23.6229C10.7757 24.3682 11.133 25.0551 11.6683 25.5899C12.2036 26.1247 12.8908 26.4814 13.6362 26.6113C14.3817 26.7413 15.149 26.6381 15.8337 26.316C16.5184 25.9938 17.087 25.4684 17.4621 24.8112C17.8372 24.154 18.0005 23.3972 17.9297 22.6438L17.9487 22.6618C17.8955 22.032 17.9804 21.3981 18.1975 20.8044C18.4146 20.2108 18.7587 19.6717 19.2056 19.2247C19.6526 18.7778 20.1917 18.4337 20.7853 18.2167C21.379 17.9996 22.0128 17.9146 22.6427 17.9678L22.6237 17.9498C23.2391 18.0051 23.8586 17.9042 24.4247 17.6564C24.9907 17.4086 25.4851 17.0219 25.8619 16.5322C26.2387 16.0425 26.4859 15.4655 26.5803 14.8549C26.6748 14.2442 26.6136 13.6196 26.4024 13.0388C26.1912 12.4581 25.8368 11.9401 25.3721 11.5328C24.9074 11.1255 24.3474 10.8421 23.744 10.7089C23.1406 10.5757 22.5133 10.5969 21.9203 10.7706C21.3273 10.9444 20.7878 11.265 20.3517 11.7028H20.3487Z" fill="#64748B"/>
<path d="M12.9709 16.9683L12.9519 16.9503C13.4872 17.0042 14.0278 16.9385 14.5347 16.7579C15.0415 16.5773 15.5019 16.2864 15.8825 15.9061C16.263 15.5258 16.5544 15.0656 16.7353 14.5589C16.9163 14.0522 16.9824 13.5117 16.9289 12.9763L16.9479 12.9943C16.8947 12.3644 16.9797 11.7306 17.1967 11.1369C17.4138 10.5433 17.7579 10.0042 18.2048 9.55717C18.6518 9.11027 19.1909 8.76617 19.7845 8.54917C20.3782 8.33203 21.012 8.2471 21.6419 8.30027L21.6229 8.28227C22.3764 8.35307 23.1333 8.18963 23.7905 7.81437C24.4478 7.43911 24.9732 6.87024 25.2952 6.18537C25.6172 5.50051 25.7201 4.73298 25.5899 3.98747C25.4597 3.24196 25.1027 2.55478 24.5675 2.01964C24.0324 1.48451 23.3452 1.12747 22.5997 0.997251C21.8542 0.867021 21.0867 0.969932 20.4018 1.29195C19.7169 1.61396 19.1481 2.13941 18.7728 2.79662C18.3975 3.45382 18.2341 4.21079 18.3049 4.96427L18.2869 4.94527C18.3402 5.57516 18.2554 6.2091 18.0384 6.80282C17.8214 7.39654 17.4773 7.93573 17.0304 8.38277C16.5834 8.82967 16.0442 9.17377 15.4505 9.39077C14.8567 9.60777 14.2228 9.69257 13.5929 9.63927L13.6109 9.65827C13.0756 9.60437 12.5349 9.67007 12.0281 9.85067C11.5213 10.0312 11.0609 10.3222 10.6803 10.7025C10.2997 11.0828 10.0084 11.543 9.82737 12.0497C9.64647 12.5564 9.58037 13.0969 9.63387 13.6323L9.61587 13.6143C9.66887 14.2441 9.58377 14.8779 9.36667 15.4715C9.14947 16.065 8.80547 16.6041 8.35857 17.051C7.91163 17.4979 7.37259 17.8419 6.77903 18.0591C6.18547 18.2762 5.55168 18.3613 4.92187 18.3083L4.93987 18.3263C4.18639 18.2555 3.42942 18.4189 2.77221 18.7942C2.11501 19.1695 1.58956 19.7383 1.26755 20.4232C0.945525 21.1081 0.842605 21.8756 0.972835 22.6211C1.10307 23.3666 1.46011 24.0538 1.99524 24.5889C2.53038 25.1241 3.21756 25.4811 3.96307 25.6113C4.70858 25.7415 5.47611 25.6386 6.16098 25.3166C6.84584 24.9946 7.41471 24.4692 7.78997 23.812C8.16527 23.1547 8.32867 22.3978 8.25787 21.6443L8.27687 21.6623C8.22367 21.0324 8.30867 20.3986 8.52577 19.8049C8.74277 19.2113 9.08687 18.6722 9.53377 18.2252C9.98077 17.7783 10.5199 17.4342 11.1135 17.2172C11.7072 17.0001 12.341 16.9151 12.9709 16.9683Z" fill="#475569"/>
<path d="M6.2699 14.961C6.64892 14.5798 6.9391 14.1196 7.11974 13.6133C7.30038 13.107 7.36702 12.567 7.3149 12.032L7.33389 12.05C7.28069 11.42 7.36565 10.7859 7.58286 10.1921C7.80007 9.59827 8.1443 9.05907 8.5915 8.61207C9.0387 8.16509 9.578 7.8211 10.1719 7.60415C10.7658 7.38719 11.3999 7.30249 12.0299 7.35597L12.0109 7.33797C12.7641 7.40854 13.5208 7.24505 14.1777 6.86981C14.8346 6.49458 15.3597 5.92585 15.6816 5.2412C16.0034 4.55654 16.1062 3.78929 15.976 3.04406C15.8458 2.29883 15.4888 1.61191 14.9539 1.07697C14.419 0.54203 13.732 0.18511 12.9868 0.0548905C12.2416 -0.0753395 11.4743 0.0274805 10.7897 0.3493C10.105 0.67112 9.5363 1.19629 9.1611 1.85319C8.7858 2.51009 8.6223 3.26675 8.6929 4.01997L8.6749 4.00197C8.7281 4.63182 8.6431 5.26569 8.426 5.85933C8.2089 6.45297 7.86492 6.99208 7.41796 7.43904C6.97101 7.886 6.43189 8.23003 5.83825 8.44707C5.24461 8.66417 4.61075 8.74917 3.9809 8.69597L3.9989 8.71397C3.38347 8.65877 2.76406 8.75987 2.19808 9.00777C1.6321 9.25567 1.13785 9.64247 0.761139 10.1323C0.384429 10.622 0.137449 11.199 0.0430689 11.8096C-0.0513011 12.4203 0.0099889 13.0449 0.221259 13.6255C0.432529 14.2062 0.786959 14.7241 1.25169 15.1313C1.71642 15.5386 2.27642 15.8219 2.8798 15.9551C3.48317 16.0882 4.1104 16.0669 4.70337 15.8932C5.29633 15.7194 5.83583 15.3988 6.27189 14.961H6.2699Z" fill="#64748B"/>
<path d="M35.7259 20.333V5.78755H45.6548V8.64267H39.2415V11.6256H45.0227V14.4878H39.2415V20.333H35.7259ZM47.2102 20.333V9.42392H50.5838V11.4126H50.6974C50.8963 10.6929 51.2206 10.1578 51.6705 9.80744C52.1203 9.45233 52.6435 9.27477 53.2401 9.27477C53.401 9.27477 53.5668 9.28661 53.7372 9.31028C53.9077 9.32922 54.0663 9.36 54.2131 9.40261V12.4211C54.0473 12.3643 53.8295 12.3193 53.5597 12.2861C53.2945 12.253 53.0578 12.2364 52.8494 12.2364C52.4375 12.2364 52.0658 12.3287 51.7344 12.5134C51.4077 12.6933 51.1496 12.9466 50.9602 13.2733C50.7756 13.5953 50.6832 13.9741 50.6832 14.4097V20.333H47.2102ZM60.1612 20.539C59.0201 20.539 58.0353 20.3141 57.2067 19.8643C56.3828 19.4097 55.7483 18.7634 55.3033 17.9253C54.8629 17.0825 54.6428 16.0811 54.6428 14.9211C54.6428 13.7942 54.8653 12.8093 55.3104 11.9665C55.7554 11.119 56.3828 10.4608 57.1925 9.9921C58.0021 9.51861 58.9562 9.28187 60.0547 9.28187C60.8312 9.28187 61.5414 9.40261 62.1854 9.64409C62.8293 9.88556 63.3857 10.243 63.8544 10.7165C64.3232 11.19 64.6877 11.7748 64.9482 12.4708C65.2086 13.1621 65.3388 13.9552 65.3388 14.8501V15.7165H55.8572V13.6995H62.1072C62.1025 13.3302 62.0149 13.0011 61.8445 12.7123C61.674 12.4234 61.4396 12.1985 61.1413 12.0376C60.8478 11.8718 60.5092 11.789 60.1257 11.789C59.7375 11.789 59.3894 11.8766 59.0817 12.0518C58.7739 12.2222 58.5301 12.4566 58.3501 12.7549C58.1702 13.0484 58.0755 13.3822 58.0661 13.7563V15.8089C58.0661 16.2539 58.1536 16.6446 58.3288 16.9807C58.504 17.3122 58.7526 17.5702 59.0746 17.7549C59.3965 17.9395 59.7801 18.0319 60.2251 18.0319C60.5329 18.0319 60.8123 17.9893 61.0632 17.904C61.3142 17.8188 61.5296 17.6933 61.7095 17.5276C61.8894 17.3619 62.0244 17.1583 62.1143 16.9168L65.3033 17.0091C65.1707 17.7241 64.8795 18.3467 64.4297 18.877C63.9846 19.4026 63.3999 19.8122 62.6754 20.1057C61.951 20.3946 61.1129 20.539 60.1612 20.539ZM72.212 20.539C71.0709 20.539 70.0861 20.3141 69.2575 19.8643C68.4336 19.4097 67.7991 18.7634 67.354 17.9253C66.9137 17.0825 66.6935 16.0811 66.6935 14.9211C66.6935 13.7942 66.9161 12.8093 67.3612 11.9665C67.8062 11.119 68.4336 10.4608 69.2433 9.9921C70.0529 9.51861 71.007 9.28187 72.1055 9.28187C72.882 9.28187 73.5922 9.40261 74.2362 9.64409C74.8801 9.88556 75.4364 10.243 75.9052 10.7165C76.3739 11.19 76.7385 11.7748 76.9989 12.4708C77.2594 13.1621 77.3896 13.9552 77.3896 14.8501V15.7165H67.908V13.6995H74.158C74.1533 13.3302 74.0657 13.0011 73.8952 12.7123C73.7248 12.4234 73.4904 12.1985 73.1921 12.0376C72.8986 11.8718 72.56 11.789 72.1765 11.789C71.7882 11.789 71.4402 11.8766 71.1325 12.0518C70.8247 12.2222 70.5808 12.4566 70.4009 12.7549C70.221 13.0484 70.1263 13.3822 70.1168 13.7563V15.8089C70.1168 16.2539 70.2044 16.6446 70.3796 16.9807C70.5548 17.3122 70.8034 17.5702 71.1254 17.7549C71.4473 17.9395 71.8308 18.0319 72.2759 18.0319C72.5837 18.0319 72.863 17.9893 73.114 17.904C73.3649 17.8188 73.5804 17.6933 73.7603 17.5276C73.9402 17.3619 74.0752 17.1583 74.1651 16.9168L77.354 17.0091C77.2215 17.7241 76.9303 18.3467 76.4805 18.877C76.0354 19.4026 75.4506 19.8122 74.7262 20.1057C74.0018 20.3946 73.1637 20.539 72.212 20.539ZM79.1918 20.333V18.3515L84.2486 12.1938V12.1228H79.3693V9.42392H88.3892V11.5972L83.7017 17.5631V17.6341H88.5597V20.333H79.1918ZM95.5909 20.539C94.4498 20.539 93.465 20.3141 92.6364 19.8643C91.8125 19.4097 91.178 18.7634 90.733 17.9253C90.2926 17.0825 90.0724 16.0811 90.0724 14.9211C90.0724 13.7942 90.295 12.8093 90.7401 11.9665C91.1851 11.119 91.8125 10.4608 92.6222 9.9921C93.4318 9.51861 94.3859 9.28187 95.4844 9.28187C96.2609 9.28187 96.9711 9.40261 97.6151 9.64409C98.259 9.88556 98.8153 10.243 99.2841 10.7165C99.7528 11.19 100.117 11.7748 100.378 12.4708C100.638 13.1621 100.768 13.9552 100.768 14.8501V15.7165H91.2869V13.6995H97.5369C97.5322 13.3302 97.4446 13.0011 97.2741 12.7123C97.1037 12.4234 96.8693 12.1985 96.571 12.0376C96.2775 11.8718 95.9389 11.789 95.5554 11.789C95.1671 11.789 94.8191 11.8766 94.5114 12.0518C94.2036 12.2222 93.9598 12.4566 93.7798 12.7549C93.5999 13.0484 93.5052 13.3822 93.4957 13.7563V15.8089C93.4957 16.2539 93.5833 16.6446 93.7585 16.9807C93.9337 17.3122 94.1823 17.5702 94.5043 17.7549C94.8262 17.9395 95.2098 18.0319 95.6548 18.0319C95.9626 18.0319 96.242 17.9893 96.4929 17.904C96.7438 17.8188 96.9593 17.6933 97.1392 17.5276C97.3191 17.3619 97.4541 17.1583 97.544 16.9168L100.733 17.0091C100.6 17.7241 100.309 18.3467 99.8594 18.877C99.4143 19.4026 98.8295 19.8122 98.1051 20.1057C97.3807 20.3946 96.5426 20.539 95.5909 20.539ZM112.088 10.539C112.007 10.2407 111.889 9.97789 111.733 9.75062C111.576 9.51861 111.385 9.32212 111.157 9.16113C110.93 9.00015 110.67 8.87941 110.376 8.79892C110.083 8.71369 109.761 8.67108 109.41 8.67108C108.705 8.67108 108.094 8.84153 107.578 9.18244C107.066 9.52335 106.671 10.0205 106.392 10.6739C106.112 11.3226 105.973 12.1109 105.973 13.039C105.973 13.9717 106.108 14.7672 106.377 15.4253C106.647 16.0835 107.038 16.5854 107.549 16.931C108.061 17.2767 108.681 17.4495 109.41 17.4495C110.054 17.4495 110.599 17.3453 111.044 17.137C111.493 16.9239 111.834 16.6233 112.066 16.235C112.298 15.8467 112.414 15.3898 112.414 14.8643L113.068 14.9424H109.531V12.3785H115.802V14.3032C115.802 15.6053 115.525 16.7203 114.971 17.6483C114.422 18.5764 113.664 19.289 112.699 19.7861C111.737 20.2833 110.632 20.5319 109.382 20.5319C107.994 20.5319 106.775 20.2312 105.724 19.6299C104.673 19.0286 103.854 18.1715 103.267 17.0589C102.68 15.9414 102.386 14.6157 102.386 13.0816C102.386 11.8884 102.564 10.8302 102.919 9.90687C103.274 8.97884 103.769 8.19286 104.403 7.54892C105.042 6.90498 105.781 6.41729 106.619 6.08585C107.462 5.75441 108.368 5.58869 109.339 5.58869C110.182 5.58869 110.966 5.70943 111.69 5.95091C112.419 6.19238 113.063 6.53329 113.622 6.97363C114.185 7.41397 114.642 7.93717 114.993 8.54324C115.343 9.1493 115.561 9.81454 115.646 10.539H112.088ZM124.913 15.6242V9.42392H128.379V20.333H125.069V18.3018H124.955C124.714 18.9694 124.302 19.4997 123.719 19.8927C123.142 20.2809 122.443 20.4751 121.624 20.4751C120.881 20.4751 120.228 20.3046 119.664 19.9637C119.101 19.6228 118.663 19.1469 118.35 18.5361C118.038 17.9206 117.879 17.2009 117.874 16.377V9.42392H121.347V15.6952C121.352 16.2871 121.508 16.7535 121.816 17.0944C122.124 17.4353 122.543 17.6057 123.073 17.6057C123.419 17.6057 123.729 17.53 124.004 17.3785C124.283 17.2222 124.503 16.9973 124.664 16.7037C124.83 16.4055 124.913 16.0456 124.913 15.6242ZM133.664 20.5177C132.968 20.5177 132.35 20.4017 131.811 20.1697C131.276 19.9329 130.852 19.5778 130.539 19.1043C130.232 18.6261 130.078 18.0271 130.078 17.3074C130.078 16.7014 130.184 16.19 130.397 15.7733C130.61 15.3567 130.904 15.0181 131.278 14.7577C131.652 14.4973 132.083 14.3008 132.571 14.1682C133.058 14.0309 133.579 13.9386 134.133 13.8912C134.753 13.8344 135.253 13.7752 135.632 13.7137C136.011 13.6474 136.285 13.5551 136.456 13.4367C136.631 13.3136 136.718 13.1408 136.718 12.9182V12.8827C136.718 12.5181 136.593 12.2364 136.342 12.0376C136.091 11.8387 135.752 11.7393 135.326 11.7393C134.867 11.7393 134.498 11.8387 134.218 12.0376C133.939 12.2364 133.761 12.511 133.686 12.8614L130.483 12.7478C130.577 12.0849 130.821 11.493 131.214 10.9722C131.612 10.4466 132.156 10.0347 132.848 9.73642C133.544 9.43339 134.379 9.28187 135.355 9.28187C136.051 9.28187 136.692 9.36473 137.279 9.53045C137.867 9.69144 138.378 9.92818 138.814 10.2407C139.249 10.5484 139.585 10.9272 139.822 11.377C140.064 11.8269 140.184 12.3406 140.184 12.9182V20.333H136.917V18.8131H136.832C136.638 19.1824 136.389 19.4949 136.086 19.7506C135.788 20.0063 135.435 20.1981 135.028 20.3259C134.626 20.4537 134.171 20.5177 133.664 20.5177ZM134.737 18.2449C135.111 18.2449 135.447 18.1692 135.745 18.0177C136.048 17.8662 136.29 17.6578 136.47 17.3927C136.65 17.1228 136.74 16.8103 136.74 16.4552V15.4182C136.64 15.4703 136.52 15.5177 136.377 15.5603C136.24 15.6029 136.089 15.6431 135.923 15.681C135.757 15.7189 135.587 15.752 135.412 15.7805C135.236 15.8089 135.068 15.8349 134.907 15.8586C134.581 15.9107 134.301 15.9912 134.069 16.1001C133.842 16.209 133.667 16.351 133.544 16.5262C133.425 16.6966 133.366 16.9002 133.366 17.137C133.366 17.4968 133.494 17.7715 133.75 17.9608C134.01 18.1502 134.339 18.2449 134.737 18.2449ZM142.308 20.333V9.42392H145.681V11.4126H145.795C145.994 10.6929 146.318 10.1578 146.768 9.80744C147.218 9.45233 147.741 9.27477 148.338 9.27477C148.499 9.27477 148.664 9.28661 148.835 9.31028C149.005 9.32922 149.164 9.36 149.311 9.40261V12.4211C149.145 12.3643 148.927 12.3193 148.657 12.2861C148.392 12.253 148.155 12.2364 147.947 12.2364C147.535 12.2364 147.163 12.3287 146.832 12.5134C146.505 12.6933 146.247 12.9466 146.058 13.2733C145.873 13.5953 145.781 13.9741 145.781 14.4097V20.333H142.308ZM154.144 20.4893C153.339 20.4893 152.607 20.2809 151.949 19.8643C151.291 19.4476 150.766 18.8226 150.373 17.9893C149.98 17.1559 149.783 16.1214 149.783 14.8856C149.783 13.6024 149.987 12.5465 150.394 11.718C150.801 10.8894 151.334 10.2762 151.992 9.87846C152.655 9.48073 153.367 9.28187 154.13 9.28187C154.703 9.28187 155.193 9.3813 155.6 9.58017C156.007 9.7743 156.343 10.0252 156.608 10.333C156.873 10.6408 157.075 10.9604 157.212 11.2918H157.283V5.78755H160.756V20.333H157.319V18.5645H157.212C157.065 18.9007 156.857 19.2156 156.587 19.5091C156.317 19.8027 155.979 20.0394 155.571 20.2194C155.169 20.3993 154.693 20.4893 154.144 20.4893ZM155.351 17.7833C155.773 17.7833 156.132 17.6649 156.431 17.4282C156.729 17.1867 156.959 16.8482 157.12 16.4126C157.281 15.9769 157.361 15.4656 157.361 14.8785C157.361 14.2819 157.281 13.7681 157.12 13.3373C156.963 12.9064 156.734 12.575 156.431 12.343C156.132 12.1109 155.773 11.9949 155.351 11.9949C154.92 11.9949 154.556 12.1133 154.257 12.3501C153.959 12.5868 153.732 12.9206 153.576 13.3515C153.424 13.7823 153.348 14.2913 153.348 14.8785C153.348 15.4656 153.426 15.9769 153.583 16.4126C153.739 16.8482 153.964 17.1867 154.257 17.4282C154.556 17.6649 154.92 17.7833 155.351 17.7833Z" fill="#1E293B"/>
</svg>
